<svg xmlns="http://www.w3.org/2000/svg" width="600" height="480" viewBox="0 0 600 480">
  <rect width="600" height="480" rx="36" fill="#FFF8E8"/>
  <circle cx="460" cy="88" r="22" fill="#FFD86B"/>
  <circle cx="145" cy="118" r="18" fill="#C7E5FF"/>
  <circle cx="175" cy="118" r="18" fill="#C7E5FF"/>
  <circle cx="160" cy="105" r="18" fill="#C7E5FF"/>
  <rect x="160" y="130" width="280" height="190" rx="18" fill="#4F8CFF"/>
  <rect x="170" y="140" width="125" height="170" rx="14" fill="#ffffff"/>
  <rect x="305" y="140" width="125" height="170" rx="14" fill="#ffffff"/>
  <rect x="293" y="140" width="14" height="170" rx="7" fill="#ff7ca8"/>
  <circle cx="245" cy="210" r="10" fill="#24324A"/>
  <circle cx="355" cy="210" r="10" fill="#24324A"/>
  <path d="M260 250c18 18 62 18 80 0" stroke="#24324A" stroke-width="8" fill="none" stroke-linecap="round"/>
  <path d="M168 300c-32 12-52 42-56 78" stroke="#4F8CFF" stroke-width="16" fill="none" stroke-linecap="round"/>
  <path d="M432 300c32 12 52 42 56 78" stroke="#4F8CFF" stroke-width="16" fill="none" stroke-linecap="round"/>
  <path d="M170 382h78" stroke="#FFB36B" stroke-width="18" stroke-linecap="round"/>
  <path d="M352 382h78" stroke="#FFB36B" stroke-width="18" stroke-linecap="round"/>
  <text x="108" y="78" font-size="34">✨</text>
  <text x="470" y="150" font-size="34">⭐</text>
  <text x="420" y="380" font-size="48">👋</text>
</svg>
